# xmcd
#
# Track frame offsets:
#	150
#	8033
#	16704
#	30017
#	45935
#	58208
#	73066
#	77271
#
# Disc length: 1256 seconds
#
# Revision: 0
# Processed by: cddbd v1.5.2PL0 Copyright (c) Steve Scherf et al.
# Submitted via: audiograbber 1.83.01
#
DISCID=4904e608
DTITLE=Beaumonts - 8 Tracks: The Nashville Sessions
DYEAR=2008
DGENRE=Country
TTITLE0=Say What You Want
TTITLE1=East Texas Girl
TTITLE2=Mayonnaise
TTITLE3=Lubbock Pt. 2
TTITLE4=Lubbock Pt. 1
TTITLE5=Toby Keith
TTITLE6=Oh Maria
TTITLE7=Burn 'Em Down
EXTD=
EXTT0=
EXTT1=
EXTT2=
EXTT3=
EXTT4=
EXTT5=
EXTT6=
EXTT7=
PLAYORDER=
